<svg width="195" height="40" viewBox="0 0 195 40" fill="none" xmlns="http://www.w3.org/2000/svg">
<g clip-path="url(#clip0)">
<path d="M80.116 25.4641C80.116 25.5541 80.071 25.6801 79.981 25.8421C79.891 26.0041 79.828 26.1301 79.792 26.2201C79.558 26.6341 79.198 27.0661 78.712 27.5161C78.226 27.9661 77.776 28.3351 77.362 28.6231C76.516 29.2171 75.625 29.6041 74.689 29.7841C73.753 29.9641 72.781 30.0541 71.773 30.0541C69.811 30.0541 68.137 29.6491 66.751 28.8391C65.365 28.0111 64.303 26.8681 63.565 25.4101C62.845 23.9341 62.485 22.2331 62.485 20.3071C62.485 18.3991 62.836 16.6801 63.538 15.1501C64.24 13.6201 65.275 12.4051 66.643 11.5051C68.029 10.5871 69.721 10.1281 71.719 10.1281C72.619 10.1281 73.384 10.2361 74.014 10.4521C74.644 10.6681 75.355 10.9201 76.147 11.2081C76.525 11.3341 76.903 11.4331 77.281 11.5051C77.659 11.5591 78.046 11.6041 78.442 11.6401C78.46 12.0361 78.487 12.4411 78.523 12.8551C78.559 13.2511 78.604 13.6561 78.658 14.0701C78.694 14.4121 78.757 14.7631 78.847 15.1231C78.937 15.4831 78.982 15.8431 78.982 16.2031C78.982 16.5451 78.856 16.7971 78.604 16.9591C78.37 17.1211 78.1 17.2021 77.794 17.2021C77.29 17.2021 76.939 16.9951 76.741 16.5811C76.687 16.4371 76.651 16.2841 76.633 16.1221C76.615 15.9421 76.588 15.7891 76.552 15.6631C76.426 15.0871 76.201 14.4661 75.877 13.8001C75.571 13.1161 75.202 12.5761 74.77 12.1801C74.428 11.8741 73.96 11.6041 73.366 11.3701C72.772 11.1181 72.241 10.9921 71.773 10.9921C71.323 10.9921 70.9 11.0911 70.504 11.2891C70.126 11.4871 69.757 11.7301 69.397 12.0181C68.623 12.6661 68.011 13.4401 67.561 14.3401C67.111 15.2401 66.796 16.2031 66.616 17.2291C66.436 18.2371 66.346 19.2271 66.346 20.1991C66.346 20.8471 66.382 21.4951 66.454 22.1431C66.544 22.7731 66.679 23.4031 66.859 24.0331C67.111 24.8791 67.471 25.6801 67.939 26.4361C68.425 27.1741 69.019 27.7771 69.721 28.2451C70.441 28.6951 71.269 28.9201 72.205 28.9201C73.537 28.9201 74.743 28.5871 75.823 27.9211C76.921 27.2551 77.83 26.3821 78.55 25.3021C78.658 25.1221 78.766 24.9691 78.874 24.8431C79 24.6991 79.18 24.6271 79.414 24.6271C79.648 24.6271 79.819 24.7171 79.927 24.8971C80.053 25.0771 80.116 25.2661 80.116 25.4641ZM92.4175 22.8991C92.4175 22.3051 92.3725 21.6301 92.2825 20.8741C92.2105 20.1001 92.0485 19.3531 91.7965 18.6331C91.5445 17.9131 91.1755 17.3191 90.6895 16.8511C90.2215 16.3651 89.5825 16.1221 88.7725 16.1221C88.0345 16.1221 87.4405 16.3561 86.9905 16.8241C86.5405 17.2921 86.1895 17.8771 85.9375 18.5791C85.7035 19.2811 85.5415 20.0101 85.4515 20.7661C85.3615 21.5041 85.3165 22.1431 85.3165 22.6831C85.3165 23.2771 85.3525 23.9611 85.4245 24.7351C85.5145 25.4911 85.6855 26.2291 85.9375 26.9491C86.1895 27.6691 86.5585 28.2631 87.0445 28.7311C87.5305 29.1991 88.1785 29.4331 88.9885 29.4331C89.7445 29.4331 90.3475 29.2081 90.7975 28.7581C91.2655 28.2901 91.6165 27.7141 91.8505 27.0301C92.0845 26.3281 92.2375 25.6081 92.3095 24.8701C92.3815 24.1141 92.4175 23.4571 92.4175 22.8991ZM96.0895 23.0341C96.0895 24.4201 95.7745 25.6531 95.1445 26.7331C94.5145 27.7951 93.6505 28.6321 92.5525 29.2441C91.4725 29.8561 90.2395 30.1621 88.8535 30.1621C87.4675 30.1621 86.2435 29.8381 85.1815 29.1901C84.1195 28.5421 83.2825 27.6691 82.6705 26.5711C82.0765 25.4731 81.7795 24.2401 81.7795 22.8721C81.7795 21.4501 82.0765 20.1811 82.6705 19.0651C83.2645 17.9311 84.1015 17.0401 85.1815 16.3921C86.2615 15.7261 87.5215 15.3931 88.9615 15.3931C90.5455 15.3931 91.8595 15.7171 92.9035 16.3651C93.9655 16.9951 94.7575 17.8861 95.2795 19.0381C95.8195 20.1721 96.0895 21.5041 96.0895 23.0341ZM113.967 29.0011C113.967 29.1451 113.877 29.2711 113.697 29.3791C113.211 29.7211 112.761 29.9281 112.347 30.0001C111.933 30.0721 111.438 30.1081 110.862 30.1081C110.304 30.1081 109.827 29.8741 109.431 29.4061C109.053 28.9381 108.819 28.4521 108.729 27.9481C108.207 28.6681 107.586 29.2261 106.866 29.6221C106.164 30.0001 105.363 30.1891 104.463 30.1891C102.735 30.1891 101.511 29.7931 100.791 29.0011C100.071 28.1911 99.7106 26.9401 99.7106 25.2481V23.4391C99.7106 22.5031 99.7106 21.5761 99.7106 20.6581C99.7286 19.7221 99.7376 18.7861 99.7376 17.8501C99.7376 17.6521 99.7106 17.4361 99.6566 17.2021C99.6026 16.9681 99.4406 16.8511 99.1706 16.8511C99.0626 16.8511 98.9546 16.8601 98.8466 16.8781C98.7566 16.8961 98.6576 16.9051 98.5496 16.9051C98.4236 16.9051 98.2796 16.8871 98.1176 16.8511C97.9556 16.8151 97.8746 16.7161 97.8746 16.5541C97.8746 16.4101 97.9016 16.3111 97.9556 16.2571C98.0276 16.2031 98.1176 16.1671 98.2256 16.1491C98.4236 16.0951 98.6396 16.0591 98.8736 16.0411C99.1076 16.0231 99.3236 16.0051 99.5216 15.9871C100.512 15.8611 101.529 15.6721 102.573 15.4201C102.681 15.3841 102.78 15.3661 102.87 15.3661C103.122 15.3661 103.248 15.4831 103.248 15.7171C103.248 17.2651 103.23 18.8221 103.194 20.3881C103.158 21.9361 103.14 23.4841 103.14 25.0321C103.14 25.4641 103.149 25.9231 103.167 26.4091C103.203 26.8771 103.284 27.3181 103.41 27.7321C103.554 28.1461 103.788 28.4791 104.112 28.7311C104.436 28.9831 104.886 29.1091 105.462 29.1091C106.074 29.1091 106.632 28.8751 107.136 28.4071C107.64 27.9211 108.009 27.4261 108.243 26.9221C108.261 26.8861 108.297 26.8051 108.351 26.6791C108.405 26.5351 108.432 26.4541 108.432 26.4361C108.432 24.9961 108.423 23.5651 108.405 22.1431C108.405 20.7031 108.405 19.2721 108.405 17.8501C108.405 17.6521 108.378 17.4361 108.324 17.2021C108.27 16.9681 108.108 16.8511 107.838 16.8511C107.73 16.8511 107.622 16.8601 107.514 16.8781C107.406 16.8961 107.289 16.9051 107.163 16.9051C107.037 16.9051 106.893 16.8871 106.731 16.8511C106.587 16.8151 106.515 16.7161 106.515 16.5541C106.515 16.4101 106.542 16.3111 106.596 16.2571C106.668 16.2031 106.758 16.1671 106.866 16.1491C107.064 16.0951 107.28 16.0591 107.514 16.0411C107.748 16.0231 107.973 16.0051 108.189 15.9871C109.197 15.8431 110.196 15.6541 111.186 15.4201C111.24 15.4021 111.285 15.3931 111.321 15.3931C111.375 15.3751 111.429 15.3661 111.483 15.3661C111.753 15.3661 111.888 15.4831 111.888 15.7171C111.888 17.6791 111.879 19.6501 111.861 21.6301C111.843 23.5921 111.834 25.5631 111.834 27.5431C111.834 27.7231 111.843 27.9301 111.861 28.1641C111.879 28.3801 111.942 28.5781 112.05 28.7581C112.158 28.9201 112.338 29.0011 112.59 29.0011C112.788 29.0011 112.986 28.9561 113.184 28.8661C113.382 28.7581 113.553 28.7041 113.697 28.7041C113.787 28.7041 113.85 28.7401 113.886 28.8121C113.94 28.8661 113.967 28.9291 113.967 29.0011ZM125.521 13.0171C125.521 13.4671 125.278 13.6921 124.792 13.6921C124.558 13.6921 124.378 13.5841 124.252 13.3681C124.126 13.1521 124.018 12.8821 123.928 12.5581C123.838 12.2341 123.73 11.9101 123.604 11.5861C123.478 11.2621 123.289 10.9921 123.037 10.7761C122.785 10.5601 122.425 10.4521 121.957 10.4521C121.543 10.4521 121.219 10.5781 120.985 10.8301C120.751 11.0821 120.589 11.3881 120.499 11.7481C120.409 12.0901 120.364 12.4321 120.364 12.7741C120.364 13.3861 120.373 13.9981 120.391 14.6101C120.427 15.2041 120.454 15.8071 120.472 16.4191H123.523C123.667 16.4191 123.775 16.4641 123.847 16.5541C123.919 16.6441 123.955 16.7521 123.955 16.8781C123.955 17.0041 123.919 17.1211 123.847 17.2291C123.775 17.3371 123.667 17.3911 123.523 17.3911H120.58V21.5491C120.58 22.6111 120.58 23.6821 120.58 24.7621C120.598 25.8421 120.607 26.9131 120.607 27.9751C120.607 28.1551 120.634 28.3981 120.688 28.7041C120.76 29.0101 120.913 29.1631 121.147 29.1631C121.363 29.1631 121.579 29.1631 121.795 29.1631C122.029 29.1451 122.254 29.1361 122.47 29.1361C122.578 29.1361 122.677 29.2081 122.767 29.3521C122.857 29.4781 122.902 29.5861 122.902 29.6761C122.902 29.8381 122.839 29.9461 122.713 30.0001C122.587 30.0721 122.461 30.1081 122.335 30.1081C121.687 30.1081 121.039 30.0901 120.391 30.0541C119.761 30.0361 119.131 30.0271 118.501 30.0271C117.961 30.0271 117.421 30.0361 116.881 30.0541C116.341 30.0721 115.801 30.0811 115.261 30.0811C114.955 30.0811 114.802 29.9281 114.802 29.6221C114.802 29.3521 114.928 29.1991 115.18 29.1631C115.396 29.1451 115.612 29.1451 115.828 29.1631C116.044 29.1811 116.26 29.1901 116.476 29.1901C116.782 29.1901 116.962 29.0461 117.016 28.7581C117.07 28.4521 117.097 28.1911 117.097 27.9751V17.3371H115.693C115.513 17.3371 115.378 17.4091 115.288 17.5531C115.198 17.6791 115.09 17.7421 114.964 17.7421C114.748 17.7421 114.64 17.6161 114.64 17.3641C114.64 17.3101 114.667 17.1931 114.721 17.0131C114.775 16.8151 114.811 16.6891 114.829 16.6351C114.901 16.4371 115.027 16.3561 115.207 16.3921C115.387 16.4101 115.558 16.4191 115.72 16.4191H117.097V14.3941C117.097 12.6481 117.529 11.4331 118.393 10.7491C119.257 10.0651 120.508 9.72314 122.146 9.72314C122.668 9.72314 123.19 9.84015 123.712 10.0741C124.234 10.2901 124.693 10.3981 125.089 10.3981C125.179 10.3981 125.251 10.3891 125.305 10.3711C125.341 10.8031 125.386 11.2441 125.44 11.6941C125.494 12.1441 125.521 12.5851 125.521 13.0171ZM136.041 13.0171C136.041 13.4671 135.798 13.6921 135.312 13.6921C135.078 13.6921 134.898 13.5841 134.772 13.3681C134.646 13.1521 134.538 12.8821 134.448 12.5581C134.358 12.2341 134.25 11.9101 134.124 11.5861C133.998 11.2621 133.809 10.9921 133.557 10.7761C133.305 10.5601 132.945 10.4521 132.477 10.4521C132.063 10.4521 131.739 10.5781 131.505 10.8301C131.271 11.0821 131.109 11.3881 131.019 11.7481C130.929 12.0901 130.884 12.4321 130.884 12.7741C130.884 13.3861 130.893 13.9981 130.911 14.6101C130.947 15.2041 130.974 15.8071 130.992 16.4191H134.043C134.187 16.4191 134.295 16.4641 134.367 16.5541C134.439 16.6441 134.475 16.7521 134.475 16.8781C134.475 17.0041 134.439 17.1211 134.367 17.2291C134.295 17.3371 134.187 17.3911 134.043 17.3911H131.1V21.5491C131.1 22.6111 131.1 23.6821 131.1 24.7621C131.118 25.8421 131.127 26.9131 131.127 27.9751C131.127 28.1551 131.154 28.3981 131.208 28.7041C131.28 29.0101 131.433 29.1631 131.667 29.1631C131.883 29.1631 132.099 29.1631 132.315 29.1631C132.549 29.1451 132.774 29.1361 132.99 29.1361C133.098 29.1361 133.197 29.2081 133.287 29.3521C133.377 29.4781 133.422 29.5861 133.422 29.6761C133.422 29.8381 133.359 29.9461 133.233 30.0001C133.107 30.0721 132.981 30.1081 132.855 30.1081C132.207 30.1081 131.559 30.0901 130.911 30.0541C130.281 30.0361 129.651 30.0271 129.021 30.0271C128.481 30.0271 127.941 30.0361 127.401 30.0541C126.861 30.0721 126.321 30.0811 125.781 30.0811C125.475 30.0811 125.322 29.9281 125.322 29.6221C125.322 29.3521 125.448 29.1991 125.7 29.1631C125.916 29.1451 126.132 29.1451 126.348 29.1631C126.564 29.1811 126.78 29.1901 126.996 29.1901C127.302 29.1901 127.482 29.0461 127.536 28.7581C127.59 28.4521 127.617 28.1911 127.617 27.9751V17.3371H126.213C126.033 17.3371 125.898 17.4091 125.808 17.5531C125.718 17.6791 125.61 17.7421 125.484 17.7421C125.268 17.7421 125.16 17.6161 125.16 17.3641C125.16 17.3101 125.187 17.1931 125.241 17.0131C125.295 16.8151 125.331 16.6891 125.349 16.6351C125.421 16.4371 125.547 16.3561 125.727 16.3921C125.907 16.4101 126.078 16.4191 126.24 16.4191H127.617V14.3941C127.617 12.6481 128.049 11.4331 128.913 10.7491C129.777 10.0651 131.028 9.72314 132.666 9.72314C133.188 9.72314 133.71 9.84015 134.232 10.0741C134.754 10.2901 135.213 10.3981 135.609 10.3981C135.699 10.3981 135.771 10.3891 135.825 10.3711C135.861 10.8031 135.906 11.2441 135.96 11.6941C136.014 12.1441 136.041 12.5851 136.041 13.0171ZM145.509 20.5231C145.509 20.1631 145.491 19.7311 145.455 19.2271C145.419 18.7231 145.329 18.2371 145.185 17.7691C145.059 17.2831 144.852 16.8781 144.564 16.5541C144.276 16.2301 143.88 16.0681 143.376 16.0681C142.89 16.0681 142.458 16.2301 142.08 16.5541C141.72 16.8601 141.414 17.2561 141.162 17.7421C140.91 18.2101 140.712 18.7051 140.568 19.2271C140.424 19.7311 140.316 20.1811 140.244 20.5771C140.55 20.5771 140.847 20.5861 141.135 20.6041C141.441 20.6041 141.738 20.6041 142.026 20.6041C143.196 20.6041 144.357 20.5771 145.509 20.5231ZM149.397 26.4901C149.397 26.5441 149.379 26.6251 149.343 26.7331C149.325 26.8231 149.298 26.8951 149.262 26.9491C149.136 27.2371 148.902 27.5701 148.56 27.9481C148.218 28.3081 147.912 28.5871 147.642 28.7851C146.436 29.7031 145.041 30.1621 143.457 30.1621C142.035 30.1621 140.802 29.8651 139.758 29.2711C138.714 28.6591 137.913 27.8131 137.355 26.7331C136.797 25.6531 136.518 24.4111 136.518 23.0071C136.518 21.6031 136.788 20.3341 137.328 19.2001C137.886 18.0481 138.678 17.1391 139.704 16.4731C140.748 15.7891 141.999 15.4471 143.457 15.4471C145.131 15.4471 146.472 15.9061 147.48 16.8241C148.488 17.7421 148.992 19.0561 148.992 20.7661C148.992 21.2341 148.776 21.4681 148.344 21.4681C147.552 21.4681 146.76 21.4591 145.968 21.4411C145.176 21.4231 144.384 21.4141 143.592 21.4141C143.016 21.4141 142.44 21.4141 141.864 21.4141C141.288 21.4141 140.712 21.4231 140.136 21.4411C140.082 21.9811 140.055 22.5301 140.055 23.0881C140.055 23.5921 140.118 24.1861 140.244 24.8701C140.388 25.5541 140.595 26.2201 140.865 26.8681C141.153 27.5161 141.522 28.0561 141.972 28.4881C142.422 28.9021 142.971 29.1091 143.619 29.1091C144.429 29.1091 145.104 28.9921 145.644 28.7581C146.202 28.5241 146.697 28.1911 147.129 27.7591C147.561 27.3271 148.002 26.8141 148.452 26.2201C148.506 26.1481 148.56 26.0941 148.614 26.0581C148.686 26.0041 148.767 25.9771 148.857 25.9771C148.983 25.9771 149.1 26.0311 149.208 26.1391C149.334 26.2291 149.397 26.3461 149.397 26.4901ZM160.222 20.5231C160.222 20.1631 160.204 19.7311 160.168 19.2271C160.132 18.7231 160.042 18.2371 159.898 17.7691C159.772 17.2831 159.565 16.8781 159.277 16.5541C158.989 16.2301 158.593 16.0681 158.089 16.0681C157.603 16.0681 157.171 16.2301 156.793 16.5541C156.433 16.8601 156.127 17.2561 155.875 17.7421C155.623 18.2101 155.425 18.7051 155.281 19.2271C155.137 19.7311 155.029 20.1811 154.957 20.5771C155.263 20.5771 155.56 20.5861 155.848 20.6041C156.154 20.6041 156.451 20.6041 156.739 20.6041C157.909 20.6041 159.07 20.5771 160.222 20.5231ZM164.11 26.4901C164.11 26.5441 164.092 26.6251 164.056 26.7331C164.038 26.8231 164.011 26.8951 163.975 26.9491C163.849 27.2371 163.615 27.5701 163.273 27.9481C162.931 28.3081 162.625 28.5871 162.355 28.7851C161.149 29.7031 159.754 30.1621 158.17 30.1621C156.748 30.1621 155.515 29.8651 154.471 29.2711C153.427 28.6591 152.626 27.8131 152.068 26.7331C151.51 25.6531 151.231 24.4111 151.231 23.0071C151.231 21.6031 151.501 20.3341 152.041 19.2001C152.599 18.0481 153.391 17.1391 154.417 16.4731C155.461 15.7891 156.712 15.4471 158.17 15.4471C159.844 15.4471 161.185 15.9061 162.193 16.8241C163.201 17.7421 163.705 19.0561 163.705 20.7661C163.705 21.2341 163.489 21.4681 163.057 21.4681C162.265 21.4681 161.473 21.4591 160.681 21.4411C159.889 21.4231 159.097 21.4141 158.305 21.4141C157.729 21.4141 157.153 21.4141 156.577 21.4141C156.001 21.4141 155.425 21.4231 154.849 21.4411C154.795 21.9811 154.768 22.5301 154.768 23.0881C154.768 23.5921 154.831 24.1861 154.957 24.8701C155.101 25.5541 155.308 26.2201 155.578 26.8681C155.866 27.5161 156.235 28.0561 156.685 28.4881C157.135 28.9021 157.684 29.1091 158.332 29.1091C159.142 29.1091 159.817 28.9921 160.357 28.7581C160.915 28.5241 161.41 28.1911 161.842 27.7591C162.274 27.3271 162.715 26.8141 163.165 26.2201C163.219 26.1481 163.273 26.0941 163.327 26.0581C163.399 26.0041 163.48 25.9771 163.57 25.9771C163.696 25.9771 163.813 26.0311 163.921 26.1391C164.047 26.2291 164.11 26.3461 164.11 26.4901ZM174.935 20.5231C174.935 20.1631 174.917 19.7311 174.881 19.2271C174.845 18.7231 174.755 18.2371 174.611 17.7691C174.485 17.2831 174.278 16.8781 173.99 16.5541C173.702 16.2301 173.306 16.0681 172.802 16.0681C172.316 16.0681 171.884 16.2301 171.506 16.5541C171.146 16.8601 170.84 17.2561 170.588 17.7421C170.336 18.2101 170.138 18.7051 169.994 19.2271C169.85 19.7311 169.742 20.1811 169.67 20.5771C169.976 20.5771 170.273 20.5861 170.561 20.6041C170.867 20.6041 171.164 20.6041 171.452 20.6041C172.622 20.6041 173.783 20.5771 174.935 20.5231ZM178.823 26.4901C178.823 26.5441 178.805 26.6251 178.769 26.7331C178.751 26.8231 178.724 26.8951 178.688 26.9491C178.562 27.2371 178.328 27.5701 177.986 27.9481C177.644 28.3081 177.338 28.5871 177.068 28.7851C175.862 29.7031 174.467 30.1621 172.883 30.1621C171.461 30.1621 170.228 29.8651 169.184 29.2711C168.14 28.6591 167.339 27.8131 166.781 26.7331C166.223 25.6531 165.944 24.4111 165.944 23.0071C165.944 21.6031 166.214 20.3341 166.754 19.2001C167.312 18.0481 168.104 17.1391 169.13 16.4731C170.174 15.7891 171.425 15.4471 172.883 15.4471C174.557 15.4471 175.898 15.9061 176.906 16.8241C177.914 17.7421 178.418 19.0561 178.418 20.7661C178.418 21.2341 178.202 21.4681 177.77 21.4681C176.978 21.4681 176.186 21.4591 175.394 21.4411C174.602 21.4231 173.81 21.4141 173.018 21.4141C172.442 21.4141 171.866 21.4141 171.29 21.4141C170.714 21.4141 170.138 21.4231 169.562 21.4411C169.508 21.9811 169.481 22.5301 169.481 23.0881C169.481 23.5921 169.544 24.1861 169.67 24.8701C169.814 25.5541 170.021 26.2201 170.291 26.8681C170.579 27.5161 170.948 28.0561 171.398 28.4881C171.848 28.9021 172.397 29.1091 173.045 29.1091C173.855 29.1091 174.53 28.9921 175.07 28.7581C175.628 28.5241 176.123 28.1911 176.555 27.7591C176.987 27.3271 177.428 26.8141 177.878 26.2201C177.932 26.1481 177.986 26.0941 178.04 26.0581C178.112 26.0041 178.193 25.9771 178.283 25.9771C178.409 25.9771 178.526 26.0311 178.634 26.1391C178.76 26.2291 178.823 26.3461 178.823 26.4901ZM189.647 20.5231C189.647 20.1631 189.629 19.7311 189.593 19.2271C189.557 18.7231 189.467 18.2371 189.323 17.7691C189.197 17.2831 188.99 16.8781 188.702 16.5541C188.414 16.2301 188.018 16.0681 187.514 16.0681C187.028 16.0681 186.596 16.2301 186.218 16.5541C185.858 16.8601 185.552 17.2561 185.3 17.7421C185.048 18.2101 184.85 18.7051 184.706 19.2271C184.562 19.7311 184.454 20.1811 184.382 20.5771C184.688 20.5771 184.985 20.5861 185.273 20.6041C185.579 20.6041 185.876 20.6041 186.164 20.6041C187.334 20.6041 188.495 20.5771 189.647 20.5231ZM193.535 26.4901C193.535 26.5441 193.517 26.6251 193.481 26.7331C193.463 26.8231 193.436 26.8951 193.4 26.9491C193.274 27.2371 193.04 27.5701 192.698 27.9481C192.356 28.3081 192.05 28.5871 191.78 28.7851C190.574 29.7031 189.179 30.1621 187.595 30.1621C186.173 30.1621 184.94 29.8651 183.896 29.2711C182.852 28.6591 182.051 27.8131 181.493 26.7331C180.935 25.6531 180.656 24.4111 180.656 23.0071C180.656 21.6031 180.926 20.3341 181.466 19.2001C182.024 18.0481 182.816 17.1391 183.842 16.4731C184.886 15.7891 186.137 15.4471 187.595 15.4471C189.269 15.4471 190.61 15.9061 191.618 16.8241C192.626 17.7421 193.13 19.0561 193.13 20.7661C193.13 21.2341 192.914 21.4681 192.482 21.4681C191.69 21.4681 190.898 21.4591 190.106 21.4411C189.314 21.4231 188.522 21.4141 187.73 21.4141C187.154 21.4141 186.578 21.4141 186.002 21.4141C185.426 21.4141 184.85 21.4231 184.274 21.4411C184.22 21.9811 184.193 22.5301 184.193 23.0881C184.193 23.5921 184.256 24.1861 184.382 24.8701C184.526 25.5541 184.733 26.2201 185.003 26.8681C185.291 27.5161 185.66 28.0561 186.11 28.4881C186.56 28.9021 187.109 29.1091 187.757 29.1091C188.567 29.1091 189.242 28.9921 189.782 28.7581C190.34 28.5241 190.835 28.1911 191.267 27.7591C191.699 27.3271 192.14 26.8141 192.59 26.2201C192.644 26.1481 192.698 26.0941 192.752 26.0581C192.824 26.0041 192.905 25.9771 192.995 25.9771C193.121 25.9771 193.238 26.0311 193.346 26.1391C193.472 26.2291 193.535 26.3461 193.535 26.4901Z" fill="white"/>
<path d="M36.4501 12.0096C37.3006 11.5965 37.6613 10.5675 37.177 9.7555C35.1612 6.3754 32.1849 3.65325 28.6098 1.94812C24.5179 -0.00352407 19.8843 -0.50704 15.4686 0.520113C11.053 1.54727 7.11735 4.04414 4.30687 7.6014C1.4964 11.1586 -0.0221246 15.5652 0.000243625 20.0987C0.0226119 24.6322 1.58455 29.0235 4.42998 32.5529C7.27542 36.0822 11.2355 38.5401 15.6611 39.5237C20.0866 40.5072 24.715 39.958 28.7875 37.9661C32.3456 36.2257 35.2949 33.4744 37.2773 30.0745C37.7536 29.2577 37.3826 28.2324 36.5281 27.8277C35.6736 27.423 34.6602 27.7934 34.1696 28.6017C32.5294 31.3035 30.1437 33.4911 27.2831 34.8903C23.9078 36.5412 20.0718 36.9964 16.4039 36.1812C12.736 35.3661 9.45387 33.329 7.09557 30.4038C4.73727 27.4787 3.44274 23.8391 3.4242 20.0818C3.40566 16.3244 4.66421 12.6723 6.99353 9.72404C9.32285 6.77578 12.5847 4.70637 16.2444 3.85507C19.9041 3.00377 23.7444 3.42108 27.1358 5.0386C30.01 6.40946 32.4173 8.57345 34.084 11.2589C34.5826 12.0623 35.5996 12.4227 36.4501 12.0096Z" fill="white"/>
<path d="M42 25C44.7614 25 47 22.7614 47 20C47 17.2386 44.7614 15 42 15C39.2386 15 37 17.2386 37 20C37 22.7614 39.2386 25 42 25Z" fill="white"/>
</g>
<defs>
<clipPath id="clip0">
<rect width="195" height="40" fill="white"/>
</clipPath>
</defs>
</svg>
