<svg width="195" height="40" viewBox="0 0 195 40" fill="none" xmlns="http://www.w3.org/2000/svg">
<path d="M80.116 25.464C80.116 25.554 80.071 25.68 79.981 25.842C79.891 26.004 79.828 26.13 79.792 26.22C79.558 26.634 79.198 27.066 78.712 27.516C78.226 27.966 77.776 28.335 77.362 28.623C76.516 29.217 75.625 29.604 74.689 29.784C73.753 29.964 72.781 30.054 71.773 30.054C69.811 30.054 68.137 29.649 66.751 28.839C65.365 28.011 64.303 26.868 63.565 25.41C62.845 23.934 62.485 22.233 62.485 20.307C62.485 18.399 62.836 16.68 63.538 15.15C64.24 13.62 65.275 12.405 66.643 11.505C68.029 10.587 69.721 10.128 71.719 10.128C72.619 10.128 73.384 10.236 74.014 10.452C74.644 10.668 75.355 10.92 76.147 11.208C76.525 11.334 76.903 11.433 77.281 11.505C77.659 11.559 78.046 11.604 78.442 11.64C78.46 12.036 78.487 12.441 78.523 12.855C78.559 13.251 78.604 13.656 78.658 14.07C78.694 14.412 78.757 14.763 78.847 15.123C78.937 15.483 78.982 15.843 78.982 16.203C78.982 16.545 78.856 16.797 78.604 16.959C78.37 17.121 78.1 17.202 77.794 17.202C77.29 17.202 76.939 16.995 76.741 16.581C76.687 16.437 76.651 16.284 76.633 16.122C76.615 15.942 76.588 15.789 76.552 15.663C76.426 15.087 76.201 14.466 75.877 13.8C75.571 13.116 75.202 12.576 74.77 12.18C74.428 11.874 73.96 11.604 73.366 11.37C72.772 11.118 72.241 10.992 71.773 10.992C71.323 10.992 70.9 11.091 70.504 11.289C70.126 11.487 69.757 11.73 69.397 12.018C68.623 12.666 68.011 13.44 67.561 14.34C67.111 15.24 66.796 16.203 66.616 17.229C66.436 18.237 66.346 19.227 66.346 20.199C66.346 20.847 66.382 21.495 66.454 22.143C66.544 22.773 66.679 23.403 66.859 24.033C67.111 24.879 67.471 25.68 67.939 26.436C68.425 27.174 69.019 27.777 69.721 28.245C70.441 28.695 71.269 28.92 72.205 28.92C73.537 28.92 74.743 28.587 75.823 27.921C76.921 27.255 77.83 26.382 78.55 25.302C78.658 25.122 78.766 24.969 78.874 24.843C79 24.699 79.18 24.627 79.414 24.627C79.648 24.627 79.819 24.717 79.927 24.897C80.053 25.077 80.116 25.266 80.116 25.464ZM92.4175 22.899C92.4175 22.305 92.3725 21.63 92.2825 20.874C92.2105 20.1 92.0485 19.353 91.7965 18.633C91.5445 17.913 91.1755 17.319 90.6895 16.851C90.2215 16.365 89.5825 16.122 88.7725 16.122C88.0345 16.122 87.4405 16.356 86.9905 16.824C86.5405 17.292 86.1895 17.877 85.9375 18.579C85.7035 19.281 85.5415 20.01 85.4515 20.766C85.3615 21.504 85.3165 22.143 85.3165 22.683C85.3165 23.277 85.3525 23.961 85.4245 24.735C85.5145 25.491 85.6855 26.229 85.9375 26.949C86.1895 27.669 86.5585 28.263 87.0445 28.731C87.5305 29.199 88.1785 29.433 88.9885 29.433C89.7445 29.433 90.3475 29.208 90.7975 28.758C91.2655 28.29 91.6165 27.714 91.8505 27.03C92.0845 26.328 92.2375 25.608 92.3095 24.87C92.3815 24.114 92.4175 23.457 92.4175 22.899ZM96.0895 23.034C96.0895 24.42 95.7745 25.653 95.1445 26.733C94.5145 27.795 93.6505 28.632 92.5525 29.244C91.4725 29.856 90.2395 30.162 88.8535 30.162C87.4675 30.162 86.2435 29.838 85.1815 29.19C84.1195 28.542 83.2825 27.669 82.6705 26.571C82.0765 25.473 81.7795 24.24 81.7795 22.872C81.7795 21.45 82.0765 20.181 82.6705 19.065C83.2645 17.931 84.1015 17.04 85.1815 16.392C86.2615 15.726 87.5215 15.393 88.9615 15.393C90.5455 15.393 91.8595 15.717 92.9035 16.365C93.9655 16.995 94.7575 17.886 95.2795 19.038C95.8195 20.172 96.0895 21.504 96.0895 23.034ZM113.967 29.001C113.967 29.145 113.877 29.271 113.697 29.379C113.211 29.721 112.761 29.928 112.347 30C111.933 30.072 111.438 30.108 110.862 30.108C110.304 30.108 109.827 29.874 109.431 29.406C109.053 28.938 108.819 28.452 108.729 27.948C108.207 28.668 107.586 29.226 106.866 29.622C106.164 30 105.363 30.189 104.463 30.189C102.735 30.189 101.511 29.793 100.791 29.001C100.071 28.191 99.7106 26.94 99.7106 25.248V23.439C99.7106 22.503 99.7106 21.576 99.7106 20.658C99.7286 19.722 99.7376 18.786 99.7376 17.85C99.7376 17.652 99.7106 17.436 99.6566 17.202C99.6026 16.968 99.4406 16.851 99.1706 16.851C99.0626 16.851 98.9546 16.86 98.8466 16.878C98.7566 16.896 98.6576 16.905 98.5496 16.905C98.4236 16.905 98.2796 16.887 98.1176 16.851C97.9556 16.815 97.8746 16.716 97.8746 16.554C97.8746 16.41 97.9016 16.311 97.9556 16.257C98.0276 16.203 98.1176 16.167 98.2256 16.149C98.4236 16.095 98.6396 16.059 98.8736 16.041C99.1076 16.023 99.3236 16.005 99.5216 15.987C100.512 15.861 101.529 15.672 102.573 15.42C102.681 15.384 102.78 15.366 102.87 15.366C103.122 15.366 103.248 15.483 103.248 15.717C103.248 17.265 103.23 18.822 103.194 20.388C103.158 21.936 103.14 23.484 103.14 25.032C103.14 25.464 103.149 25.923 103.167 26.409C103.203 26.877 103.284 27.318 103.41 27.732C103.554 28.146 103.788 28.479 104.112 28.731C104.436 28.983 104.886 29.109 105.462 29.109C106.074 29.109 106.632 28.875 107.136 28.407C107.64 27.921 108.009 27.426 108.243 26.922C108.261 26.886 108.297 26.805 108.351 26.679C108.405 26.535 108.432 26.454 108.432 26.436C108.432 24.996 108.423 23.565 108.405 22.143C108.405 20.703 108.405 19.272 108.405 17.85C108.405 17.652 108.378 17.436 108.324 17.202C108.27 16.968 108.108 16.851 107.838 16.851C107.73 16.851 107.622 16.86 107.514 16.878C107.406 16.896 107.289 16.905 107.163 16.905C107.037 16.905 106.893 16.887 106.731 16.851C106.587 16.815 106.515 16.716 106.515 16.554C106.515 16.41 106.542 16.311 106.596 16.257C106.668 16.203 106.758 16.167 106.866 16.149C107.064 16.095 107.28 16.059 107.514 16.041C107.748 16.023 107.973 16.005 108.189 15.987C109.197 15.843 110.196 15.654 111.186 15.42C111.24 15.402 111.285 15.393 111.321 15.393C111.375 15.375 111.429 15.366 111.483 15.366C111.753 15.366 111.888 15.483 111.888 15.717C111.888 17.679 111.879 19.65 111.861 21.63C111.843 23.592 111.834 25.563 111.834 27.543C111.834 27.723 111.843 27.93 111.861 28.164C111.879 28.38 111.942 28.578 112.05 28.758C112.158 28.92 112.338 29.001 112.59 29.001C112.788 29.001 112.986 28.956 113.184 28.866C113.382 28.758 113.553 28.704 113.697 28.704C113.787 28.704 113.85 28.74 113.886 28.812C113.94 28.866 113.967 28.929 113.967 29.001ZM125.521 13.017C125.521 13.467 125.278 13.692 124.792 13.692C124.558 13.692 124.378 13.584 124.252 13.368C124.126 13.152 124.018 12.882 123.928 12.558C123.838 12.234 123.73 11.91 123.604 11.586C123.478 11.262 123.289 10.992 123.037 10.776C122.785 10.56 122.425 10.452 121.957 10.452C121.543 10.452 121.219 10.578 120.985 10.83C120.751 11.082 120.589 11.388 120.499 11.748C120.409 12.09 120.364 12.432 120.364 12.774C120.364 13.386 120.373 13.998 120.391 14.61C120.427 15.204 120.454 15.807 120.472 16.419H123.523C123.667 16.419 123.775 16.464 123.847 16.554C123.919 16.644 123.955 16.752 123.955 16.878C123.955 17.004 123.919 17.121 123.847 17.229C123.775 17.337 123.667 17.391 123.523 17.391H120.58V21.549C120.58 22.611 120.58 23.682 120.58 24.762C120.598 25.842 120.607 26.913 120.607 27.975C120.607 28.155 120.634 28.398 120.688 28.704C120.76 29.01 120.913 29.163 121.147 29.163C121.363 29.163 121.579 29.163 121.795 29.163C122.029 29.145 122.254 29.136 122.47 29.136C122.578 29.136 122.677 29.208 122.767 29.352C122.857 29.478 122.902 29.586 122.902 29.676C122.902 29.838 122.839 29.946 122.713 30C122.587 30.072 122.461 30.108 122.335 30.108C121.687 30.108 121.039 30.09 120.391 30.054C119.761 30.036 119.131 30.027 118.501 30.027C117.961 30.027 117.421 30.036 116.881 30.054C116.341 30.072 115.801 30.081 115.261 30.081C114.955 30.081 114.802 29.928 114.802 29.622C114.802 29.352 114.928 29.199 115.18 29.163C115.396 29.145 115.612 29.145 115.828 29.163C116.044 29.181 116.26 29.19 116.476 29.19C116.782 29.19 116.962 29.046 117.016 28.758C117.07 28.452 117.097 28.191 117.097 27.975V17.337H115.693C115.513 17.337 115.378 17.409 115.288 17.553C115.198 17.679 115.09 17.742 114.964 17.742C114.748 17.742 114.64 17.616 114.64 17.364C114.64 17.31 114.667 17.193 114.721 17.013C114.775 16.815 114.811 16.689 114.829 16.635C114.901 16.437 115.027 16.356 115.207 16.392C115.387 16.41 115.558 16.419 115.72 16.419H117.097V14.394C117.097 12.648 117.529 11.433 118.393 10.749C119.257 10.065 120.508 9.723 122.146 9.723C122.668 9.723 123.19 9.84 123.712 10.074C124.234 10.29 124.693 10.398 125.089 10.398C125.179 10.398 125.251 10.389 125.305 10.371C125.341 10.803 125.386 11.244 125.44 11.694C125.494 12.144 125.521 12.585 125.521 13.017ZM136.041 13.017C136.041 13.467 135.798 13.692 135.312 13.692C135.078 13.692 134.898 13.584 134.772 13.368C134.646 13.152 134.538 12.882 134.448 12.558C134.358 12.234 134.25 11.91 134.124 11.586C133.998 11.262 133.809 10.992 133.557 10.776C133.305 10.56 132.945 10.452 132.477 10.452C132.063 10.452 131.739 10.578 131.505 10.83C131.271 11.082 131.109 11.388 131.019 11.748C130.929 12.09 130.884 12.432 130.884 12.774C130.884 13.386 130.893 13.998 130.911 14.61C130.947 15.204 130.974 15.807 130.992 16.419H134.043C134.187 16.419 134.295 16.464 134.367 16.554C134.439 16.644 134.475 16.752 134.475 16.878C134.475 17.004 134.439 17.121 134.367 17.229C134.295 17.337 134.187 17.391 134.043 17.391H131.1V21.549C131.1 22.611 131.1 23.682 131.1 24.762C131.118 25.842 131.127 26.913 131.127 27.975C131.127 28.155 131.154 28.398 131.208 28.704C131.28 29.01 131.433 29.163 131.667 29.163C131.883 29.163 132.099 29.163 132.315 29.163C132.549 29.145 132.774 29.136 132.99 29.136C133.098 29.136 133.197 29.208 133.287 29.352C133.377 29.478 133.422 29.586 133.422 29.676C133.422 29.838 133.359 29.946 133.233 30C133.107 30.072 132.981 30.108 132.855 30.108C132.207 30.108 131.559 30.09 130.911 30.054C130.281 30.036 129.651 30.027 129.021 30.027C128.481 30.027 127.941 30.036 127.401 30.054C126.861 30.072 126.321 30.081 125.781 30.081C125.475 30.081 125.322 29.928 125.322 29.622C125.322 29.352 125.448 29.199 125.7 29.163C125.916 29.145 126.132 29.145 126.348 29.163C126.564 29.181 126.78 29.19 126.996 29.19C127.302 29.19 127.482 29.046 127.536 28.758C127.59 28.452 127.617 28.191 127.617 27.975V17.337H126.213C126.033 17.337 125.898 17.409 125.808 17.553C125.718 17.679 125.61 17.742 125.484 17.742C125.268 17.742 125.16 17.616 125.16 17.364C125.16 17.31 125.187 17.193 125.241 17.013C125.295 16.815 125.331 16.689 125.349 16.635C125.421 16.437 125.547 16.356 125.727 16.392C125.907 16.41 126.078 16.419 126.24 16.419H127.617V14.394C127.617 12.648 128.049 11.433 128.913 10.749C129.777 10.065 131.028 9.723 132.666 9.723C133.188 9.723 133.71 9.84 134.232 10.074C134.754 10.29 135.213 10.398 135.609 10.398C135.699 10.398 135.771 10.389 135.825 10.371C135.861 10.803 135.906 11.244 135.96 11.694C136.014 12.144 136.041 12.585 136.041 13.017ZM145.509 20.523C145.509 20.163 145.491 19.731 145.455 19.227C145.419 18.723 145.329 18.237 145.185 17.769C145.059 17.283 144.852 16.878 144.564 16.554C144.276 16.23 143.88 16.068 143.376 16.068C142.89 16.068 142.458 16.23 142.08 16.554C141.72 16.86 141.414 17.256 141.162 17.742C140.91 18.21 140.712 18.705 140.568 19.227C140.424 19.731 140.316 20.181 140.244 20.577C140.55 20.577 140.847 20.586 141.135 20.604C141.441 20.604 141.738 20.604 142.026 20.604C143.196 20.604 144.357 20.577 145.509 20.523ZM149.397 26.49C149.397 26.544 149.379 26.625 149.343 26.733C149.325 26.823 149.298 26.895 149.262 26.949C149.136 27.237 148.902 27.57 148.56 27.948C148.218 28.308 147.912 28.587 147.642 28.785C146.436 29.703 145.041 30.162 143.457 30.162C142.035 30.162 140.802 29.865 139.758 29.271C138.714 28.659 137.913 27.813 137.355 26.733C136.797 25.653 136.518 24.411 136.518 23.007C136.518 21.603 136.788 20.334 137.328 19.2C137.886 18.048 138.678 17.139 139.704 16.473C140.748 15.789 141.999 15.447 143.457 15.447C145.131 15.447 146.472 15.906 147.48 16.824C148.488 17.742 148.992 19.056 148.992 20.766C148.992 21.234 148.776 21.468 148.344 21.468C147.552 21.468 146.76 21.459 145.968 21.441C145.176 21.423 144.384 21.414 143.592 21.414C143.016 21.414 142.44 21.414 141.864 21.414C141.288 21.414 140.712 21.423 140.136 21.441C140.082 21.981 140.055 22.53 140.055 23.088C140.055 23.592 140.118 24.186 140.244 24.87C140.388 25.554 140.595 26.22 140.865 26.868C141.153 27.516 141.522 28.056 141.972 28.488C142.422 28.902 142.971 29.109 143.619 29.109C144.429 29.109 145.104 28.992 145.644 28.758C146.202 28.524 146.697 28.191 147.129 27.759C147.561 27.327 148.002 26.814 148.452 26.22C148.506 26.148 148.56 26.094 148.614 26.058C148.686 26.004 148.767 25.977 148.857 25.977C148.983 25.977 149.1 26.031 149.208 26.139C149.334 26.229 149.397 26.346 149.397 26.49ZM160.222 20.523C160.222 20.163 160.204 19.731 160.168 19.227C160.132 18.723 160.042 18.237 159.898 17.769C159.772 17.283 159.565 16.878 159.277 16.554C158.989 16.23 158.593 16.068 158.089 16.068C157.603 16.068 157.171 16.23 156.793 16.554C156.433 16.86 156.127 17.256 155.875 17.742C155.623 18.21 155.425 18.705 155.281 19.227C155.137 19.731 155.029 20.181 154.957 20.577C155.263 20.577 155.56 20.586 155.848 20.604C156.154 20.604 156.451 20.604 156.739 20.604C157.909 20.604 159.07 20.577 160.222 20.523ZM164.11 26.49C164.11 26.544 164.092 26.625 164.056 26.733C164.038 26.823 164.011 26.895 163.975 26.949C163.849 27.237 163.615 27.57 163.273 27.948C162.931 28.308 162.625 28.587 162.355 28.785C161.149 29.703 159.754 30.162 158.17 30.162C156.748 30.162 155.515 29.865 154.471 29.271C153.427 28.659 152.626 27.813 152.068 26.733C151.51 25.653 151.231 24.411 151.231 23.007C151.231 21.603 151.501 20.334 152.041 19.2C152.599 18.048 153.391 17.139 154.417 16.473C155.461 15.789 156.712 15.447 158.17 15.447C159.844 15.447 161.185 15.906 162.193 16.824C163.201 17.742 163.705 19.056 163.705 20.766C163.705 21.234 163.489 21.468 163.057 21.468C162.265 21.468 161.473 21.459 160.681 21.441C159.889 21.423 159.097 21.414 158.305 21.414C157.729 21.414 157.153 21.414 156.577 21.414C156.001 21.414 155.425 21.423 154.849 21.441C154.795 21.981 154.768 22.53 154.768 23.088C154.768 23.592 154.831 24.186 154.957 24.87C155.101 25.554 155.308 26.22 155.578 26.868C155.866 27.516 156.235 28.056 156.685 28.488C157.135 28.902 157.684 29.109 158.332 29.109C159.142 29.109 159.817 28.992 160.357 28.758C160.915 28.524 161.41 28.191 161.842 27.759C162.274 27.327 162.715 26.814 163.165 26.22C163.219 26.148 163.273 26.094 163.327 26.058C163.399 26.004 163.48 25.977 163.57 25.977C163.696 25.977 163.813 26.031 163.921 26.139C164.047 26.229 164.11 26.346 164.11 26.49ZM174.935 20.523C174.935 20.163 174.917 19.731 174.881 19.227C174.845 18.723 174.755 18.237 174.611 17.769C174.485 17.283 174.278 16.878 173.99 16.554C173.702 16.23 173.306 16.068 172.802 16.068C172.316 16.068 171.884 16.23 171.506 16.554C171.146 16.86 170.84 17.256 170.588 17.742C170.336 18.21 170.138 18.705 169.994 19.227C169.85 19.731 169.742 20.181 169.67 20.577C169.976 20.577 170.273 20.586 170.561 20.604C170.867 20.604 171.164 20.604 171.452 20.604C172.622 20.604 173.783 20.577 174.935 20.523ZM178.823 26.49C178.823 26.544 178.805 26.625 178.769 26.733C178.751 26.823 178.724 26.895 178.688 26.949C178.562 27.237 178.328 27.57 177.986 27.948C177.644 28.308 177.338 28.587 177.068 28.785C175.862 29.703 174.467 30.162 172.883 30.162C171.461 30.162 170.228 29.865 169.184 29.271C168.14 28.659 167.339 27.813 166.781 26.733C166.223 25.653 165.944 24.411 165.944 23.007C165.944 21.603 166.214 20.334 166.754 19.2C167.312 18.048 168.104 17.139 169.13 16.473C170.174 15.789 171.425 15.447 172.883 15.447C174.557 15.447 175.898 15.906 176.906 16.824C177.914 17.742 178.418 19.056 178.418 20.766C178.418 21.234 178.202 21.468 177.77 21.468C176.978 21.468 176.186 21.459 175.394 21.441C174.602 21.423 173.81 21.414 173.018 21.414C172.442 21.414 171.866 21.414 171.29 21.414C170.714 21.414 170.138 21.423 169.562 21.441C169.508 21.981 169.481 22.53 169.481 23.088C169.481 23.592 169.544 24.186 169.67 24.87C169.814 25.554 170.021 26.22 170.291 26.868C170.579 27.516 170.948 28.056 171.398 28.488C171.848 28.902 172.397 29.109 173.045 29.109C173.855 29.109 174.53 28.992 175.07 28.758C175.628 28.524 176.123 28.191 176.555 27.759C176.987 27.327 177.428 26.814 177.878 26.22C177.932 26.148 177.986 26.094 178.04 26.058C178.112 26.004 178.193 25.977 178.283 25.977C178.409 25.977 178.526 26.031 178.634 26.139C178.76 26.229 178.823 26.346 178.823 26.49ZM189.647 20.523C189.647 20.163 189.629 19.731 189.593 19.227C189.557 18.723 189.467 18.237 189.323 17.769C189.197 17.283 188.99 16.878 188.702 16.554C188.414 16.23 188.018 16.068 187.514 16.068C187.028 16.068 186.596 16.23 186.218 16.554C185.858 16.86 185.552 17.256 185.3 17.742C185.048 18.21 184.85 18.705 184.706 19.227C184.562 19.731 184.454 20.181 184.382 20.577C184.688 20.577 184.985 20.586 185.273 20.604C185.579 20.604 185.876 20.604 186.164 20.604C187.334 20.604 188.495 20.577 189.647 20.523ZM193.535 26.49C193.535 26.544 193.517 26.625 193.481 26.733C193.463 26.823 193.436 26.895 193.4 26.949C193.274 27.237 193.04 27.57 192.698 27.948C192.356 28.308 192.05 28.587 191.78 28.785C190.574 29.703 189.179 30.162 187.595 30.162C186.173 30.162 184.94 29.865 183.896 29.271C182.852 28.659 182.051 27.813 181.493 26.733C180.935 25.653 180.656 24.411 180.656 23.007C180.656 21.603 180.926 20.334 181.466 19.2C182.024 18.048 182.816 17.139 183.842 16.473C184.886 15.789 186.137 15.447 187.595 15.447C189.269 15.447 190.61 15.906 191.618 16.824C192.626 17.742 193.13 19.056 193.13 20.766C193.13 21.234 192.914 21.468 192.482 21.468C191.69 21.468 190.898 21.459 190.106 21.441C189.314 21.423 188.522 21.414 187.73 21.414C187.154 21.414 186.578 21.414 186.002 21.414C185.426 21.414 184.85 21.423 184.274 21.441C184.22 21.981 184.193 22.53 184.193 23.088C184.193 23.592 184.256 24.186 184.382 24.87C184.526 25.554 184.733 26.22 185.003 26.868C185.291 27.516 185.66 28.056 186.11 28.488C186.56 28.902 187.109 29.109 187.757 29.109C188.567 29.109 189.242 28.992 189.782 28.758C190.34 28.524 190.835 28.191 191.267 27.759C191.699 27.327 192.14 26.814 192.59 26.22C192.644 26.148 192.698 26.094 192.752 26.058C192.824 26.004 192.905 25.977 192.995 25.977C193.121 25.977 193.238 26.031 193.346 26.139C193.472 26.229 193.535 26.346 193.535 26.49Z" fill="#2B2F33"/>
<path d="M36.4501 12.0096C37.3006 11.5965 37.6613 10.5675 37.177 9.75548C35.1612 6.37538 32.1849 3.65323 28.6098 1.9481C24.5179 -0.00354302 19.8843 -0.507059 15.4686 0.520094C11.053 1.54725 7.11735 4.04412 4.30687 7.60138C1.4964 11.1586 -0.0221248 15.5652 0.000243442 20.0987C0.0226117 24.6322 1.58455 29.0235 4.42998 32.5529C7.27542 36.0822 11.2355 38.5401 15.6611 39.5237C20.0866 40.5072 24.715 39.958 28.7875 37.9661C32.3456 36.2257 35.2949 33.4744 37.2773 30.0745C37.7536 29.2577 37.3826 28.2324 36.5281 27.8277V27.8277C35.6736 27.423 34.6602 27.7934 34.1696 28.6017C32.5294 31.3035 30.1437 33.4911 27.2831 34.8903C23.9078 36.5412 20.0718 36.9964 16.4039 36.1812C12.736 35.3661 9.45387 33.329 7.09557 30.4038C4.73727 27.4787 3.44274 23.8391 3.4242 20.0818C3.40566 16.3244 4.66421 12.6723 6.99353 9.72402C9.32285 6.77576 12.5847 4.70635 16.2444 3.85505C19.9041 3.00375 23.7444 3.42106 27.1358 5.03858C30.01 6.40944 32.4173 8.57343 34.084 11.2589C34.5826 12.0623 35.5996 12.4227 36.4501 12.0096V12.0096Z" fill="#2B2F33"/>
<circle cx="42" cy="20" r="5" fill="#D59D66"/>
</svg>
