<svg width="47" height="40" viewBox="0 0 47 40" fill="none" xmlns="http://www.w3.org/2000/svg">
<path d="M36.4501 12.0096C37.3006 11.5965 37.6613 10.5675 37.177 9.75548C35.1612 6.37538 32.1849 3.65323 28.6098 1.9481C24.5179 -0.00353932 19.8843 -0.507055 15.4686 0.520098C11.053 1.54725 7.11735 4.04412 4.30687 7.60138C1.4964 11.1586 -0.0221246 15.5652 0.000243625 20.0987C0.0226119 24.6322 1.58455 29.0235 4.42998 32.5529C7.27542 36.0822 11.2355 38.5401 15.6611 39.5237C20.0866 40.5072 24.715 39.958 28.7875 37.9661C32.3456 36.2257 35.2949 33.4744 37.2773 30.0745C37.7536 29.2577 37.3826 28.2324 36.5281 27.8277C35.6736 27.423 34.6602 27.7934 34.1696 28.6017C32.5294 31.3035 30.1437 33.4911 27.2831 34.8903C23.9078 36.5412 20.0718 36.9964 16.4039 36.1812C12.736 35.3661 9.45387 33.329 7.09557 30.4038C4.73727 27.4787 3.44274 23.8391 3.4242 20.0818C3.40566 16.3244 4.66421 12.6723 6.99353 9.72402C9.32285 6.77576 12.5847 4.70635 16.2444 3.85505C19.9041 3.00375 23.7444 3.42106 27.1358 5.03858C30.01 6.40944 32.4173 8.57343 34.084 11.2589C34.5826 12.0623 35.5996 12.4227 36.4501 12.0096Z" fill="white"/>
<path d="M42 25C44.7614 25 47 22.7614 47 20C47 17.2386 44.7614 15 42 15C39.2386 15 37 17.2386 37 20C37 22.7614 39.2386 25 42 25Z" fill="#D59D66"/>
</svg>
